<?xml version="1.0" standalone="no"?>
<!DOCTYPE svg PUBLIC "-//W3C//DTD SVG 20010904//EN"
 "http://www.w3.org/TR/2001/REC-SVG-20010904/DTD/svg10.dtd">
<svg version="1.0" xmlns="http://www.w3.org/2000/svg"
 width="228.000000pt" height="221.000000pt" viewBox="0 0 228.000000 221.000000"
 preserveAspectRatio="xMidYMid meet">

<g transform="translate(0.000000,221.000000) scale(0.100000,-0.100000)"
fill="#000000" stroke="none">
<path d="M590 1760 c-294 -215 -539 -396 -543 -403 -6 -10 388 -1255 408
-1287 4 -6 258 -10 680 -10 l674 0 29 92 c16 51 109 339 207 641 97 301 175
553 172 560 -5 13 -1053 782 -1079 792 -7 3 -254 -171 -548 -385z m798 193
c574 -418 817 -596 821 -599 2 -2 -11 -50 -29 -106 -50 -159 -286 -887 -336
-1041 l-46 -137 -668 0 -668 0 -16 48 c-8 26 -64 200 -125 387 -60 187 -146
454 -191 593 -45 139 -80 255 -78 256 1 2 84 62 183 134 99 72 340 248 535
391 195 143 357 260 358 260 2 1 119 -83 260 -186z"/>
<path d="M1112 2062 c-9 -7 -8 -13 8 -27 11 -10 20 -26 20 -36 0 -10 10 -25
22 -33 12 -9 19 -18 17 -21 -3 -3 -14 4 -23 14 -18 19 -19 19 -69 -17 -29 -20
-56 -40 -62 -44 -5 -5 -57 -43 -115 -85 -58 -42 -107 -79 -110 -82 -3 -4 -25
-20 -50 -36 -25 -17 -49 -34 -55 -38 -33 -26 -325 -239 -402 -294 -51 -37 -93
-71 -93 -77 0 -10 45 -152 60 -191 4 -11 36 -108 70 -215 35 -107 68 -208 74
-225 6 -16 11 -32 11 -35 1 -6 64 -208 72 -230 3 -8 7 -19 9 -25 1 -5 14 -43
28 -84 31 -89 33 -114 9 -109 -18 3 -56 111 -289 833 -79 247 -114 332 -114
281 0 -9 60 -203 134 -429 74 -227 157 -485 186 -574 l53 -163 631 0 632 0 52
163 c29 89 117 361 196 605 l144 443 -67 49 c-36 26 -264 192 -506 369 -242
176 -444 321 -450 321 -5 0 -16 -4 -23 -8z m183 -194 c24 -17 43 -34 41 -36
-4 -3 -58 33 -90 60 -25 21 8 5 49 -24z m-110 -89 c10 -33 24 -63 29 -65 6 -2
39 -5 74 -8 34 -2 65 -6 67 -8 3 -3 -21 -24 -54 -47 l-58 -43 23 -74 c12 -41
20 -74 17 -74 -2 0 -30 18 -60 40 -31 22 -60 40 -64 40 -5 0 -34 -18 -65 -40
-32 -22 -59 -39 -60 -37 -2 2 5 32 16 68 11 35 20 67 20 71 0 4 -25 26 -55 49
-31 23 -53 44 -51 47 5 5 48 9 108 11 37 1 37 2 59 70 13 39 26 68 29 66 4 -2
15 -32 25 -66z m212 15 c18 -17 21 -23 8 -16 -34 18 -61 41 -48 42 7 0 25 -12
40 -26z m88 -72 c-3 -3 -11 0 -18 7 -9 10 -8 11 6 5 10 -3 15 -9 12 -12z m40
-22 c3 -6 -1 -7 -9 -4 -18 7 -21 14 -7 14 6 0 13 -4 16 -10z m-79 -76 c-3 -7
-1 -16 4 -19 5 -3 12 4 15 16 8 24 23 14 28 -18 4 -28 17 -42 17 -19 0 10 6
16 13 13 6 -2 12 -13 12 -25 0 -12 6 -27 14 -34 7 -7 12 -8 11 -3 -4 21 0 35
11 35 7 0 9 -12 7 -30 -5 -33 8 -51 18 -26 10 26 26 18 24 -11 -3 -42 0 -50
11 -30 5 9 14 17 19 17 13 0 13 -37 0 -45 -6 -4 -8 -11 -4 -16 4 -6 14 -3 26
8 21 18 21 18 14 -27 -4 -34 -3 -41 5 -27 5 9 14 17 19 17 13 0 13 -37 0 -45
-5 -3 -10 -10 -10 -16 0 -5 9 -4 20 3 27 17 36 3 16 -26 -21 -33 -20 -39 4
-24 27 17 36 3 16 -26 -19 -30 -21 -45 -4 -28 7 7 17 12 24 12 16 0 5 -40 -12
-47 -8 -3 -14 -12 -14 -20 0 -12 2 -12 16 1 8 9 20 16 25 16 15 0 10 -19 -11
-40 -26 -26 -25 -28 8 -22 25 5 26 4 12 -14 -8 -10 -21 -23 -27 -27 -7 -4 -13
-13 -13 -19 0 -7 5 -6 15 2 29 24 40 4 13 -23 l-27 -27 26 0 c25 0 26 0 8 -20
-10 -11 -24 -20 -32 -20 -7 0 -13 -4 -13 -9 0 -4 11 -6 25 -3 14 2 25 0 25 -5
0 -15 -23 -33 -42 -33 -10 0 -18 -5 -18 -11 0 -5 5 -7 10 -4 6 4 18 4 27 1 12
-5 13 -9 3 -21 -7 -8 -21 -15 -31 -15 -10 0 -21 -5 -25 -12 -5 -7 -2 -9 8 -6
8 4 21 2 29 -3 12 -8 11 -12 -6 -24 -11 -9 -25 -13 -32 -11 -7 3 -15 1 -18 -4
-4 -6 5 -10 19 -10 34 0 33 -16 -1 -34 -20 -11 -23 -15 -10 -16 9 0 17 -4 17
-9 0 -12 -38 -25 -65 -23 -13 1 -11 -2 8 -9 15 -6 27 -15 27 -20 0 -11 -46
-23 -65 -16 -8 4 -17 2 -20 -3 -4 -6 3 -10 14 -10 11 0 22 -4 26 -9 8 -13 -33
-34 -51 -27 -9 3 -31 -6 -50 -20 -39 -30 -46 -19 -10 15 20 19 23 28 16 47
-13 32 -3 59 16 43 8 -6 14 -18 14 -26 0 -8 5 -11 11 -7 8 4 8 9 0 17 -6 6
-11 24 -11 41 l0 29 25 -23 c14 -13 25 -18 25 -12 0 7 -4 12 -10 12 -5 0 -10
14 -10 32 0 30 0 31 20 13 11 -10 22 -16 25 -13 3 3 -1 11 -10 18 -16 13 -21
50 -6 50 5 0 14 -7 21 -15 7 -9 15 -13 18 -11 2 3 -3 12 -12 21 -9 9 -16 23
-16 31 0 20 27 18 40 -3 14 -22 9 -7 -9 30 -17 32 -9 46 16 26 16 -13 16 -13
0 11 -25 36 -23 54 6 39 21 -12 21 -11 5 8 -25 27 -23 47 3 40 l21 -6 -21 20
c-27 25 -27 43 0 36 21 -6 21 -5 -2 20 -17 19 -20 27 -11 30 10 4 9 9 -4 24
-16 18 -16 19 5 19 21 0 21 1 -6 25 l-28 24 25 1 25 0 -24 13 c-24 12 -27 33
-4 31 7 -1 10 2 7 7 -3 5 -11 9 -18 9 -8 0 -19 7 -26 15 -10 13 -9 15 11 15
21 1 19 3 -10 16 -33 14 -33 15 -15 29 18 14 18 14 -3 15 -29 0 -38 16 -16 29
15 9 13 10 -14 11 -35 0 -41 8 -21 28 9 9 6 12 -15 12 -15 0 -27 5 -27 10 0 6
5 10 10 10 6 0 10 4 10 8 0 5 -13 7 -30 4 -31 -4 -43 14 -15 24 8 4 12 10 9
16 -3 5 -11 4 -20 -3 -7 -6 -22 -8 -31 -4 -17 6 -17 7 2 22 19 14 18 15 -17 9
-39 -7 -47 0 -25 23 10 10 7 11 -15 6 -19 -5 -32 -1 -47 14 -12 12 -21 23 -21
26 0 8 48 6 53 -2 2 -5 2 -2 0 5 -2 8 0 18 3 23 8 14 36 -11 30 -27z m145 19
c13 -16 12 -17 -3 -4 -17 13 -22 21 -14 21 2 0 10 -8 17 -17z m-783 -26 c2
-10 -3 -17 -11 -17 -16 0 -30 24 -19 34 10 10 27 1 30 -17z m857 -21 c20 -18
20 -18 0 -7 -30 16 -55 37 -55 46 0 8 20 -6 55 -39z m-708 14 c1 -11 -4 -20
-12 -20 -17 0 -28 17 -20 30 11 17 31 11 32 -10z m778 -68 c-3 -3 -11 0 -18 7
-9 10 -8 11 6 5 10 -3 15 -9 12 -12z m-1035 -13 c0 -11 -3 -18 -7 -16 -5 2
-16 7 -26 10 -22 8 -13 27 14 27 13 0 19 -7 19 -21z m185 -9 c4 -6 4 -18 1
-27 -5 -12 -9 -13 -21 -3 -8 7 -15 19 -15 26 0 16 26 19 35 4z m929 -39 c-3
-3 -15 6 -27 18 l-22 24 27 -19 c14 -10 24 -21 22 -23z m47 -28 c13 -15 12
-15 -8 -4 -24 12 -29 21 -14 21 5 0 15 -7 22 -17z m-1064 -27 c-4 -9 -13 -13
-22 -10 -18 7 -20 31 -2 37 17 6 31 -9 24 -27z m-187 -2 c0 -8 -8 -14 -18 -14
-23 0 -32 8 -26 25 7 17 44 7 44 -11z m1301 -6 c18 -20 23 -28 16 -28 -2 0
-14 11 -27 25 -13 14 -20 25 -15 25 4 0 16 -10 26 -22z m60 -45 c13 -15 12
-15 -8 -4 -24 12 -29 21 -14 21 5 0 15 -7 22 -17z m-1237 -43 c-13 -13 -44 -2
-44 15 0 20 23 25 40 9 10 -10 11 -17 4 -24z m1271 20 c3 -5 1 -10 -4 -10 -6
0 -11 5 -11 10 0 6 2 10 4 10 3 0 8 -4 11 -10z m-1465 -44 c0 -8 -6 -16 -12
-19 -20 -7 -37 3 -31 19 7 18 43 18 43 0z m516 -43 l83 -58 1 -127 c0 -71 -3
-128 -6 -128 -3 0 -15 5 -27 11 -21 10 -21 10 -3 -5 11 -9 23 -16 28 -16 4 0
8 -12 8 -26 l0 -26 -33 20 c-19 11 -46 27 -60 37 -15 9 -27 15 -27 13 0 -8
114 -81 125 -81 5 0 67 37 138 82 114 73 147 87 147 62 0 -4 -44 -39 -97 -76
-54 -38 -108 -77 -121 -86 l-23 -17 81 -58 c55 -39 76 -60 68 -66 -26 -16 -52
-7 -119 42 -38 28 -71 50 -74 50 -3 0 -36 -22 -74 -50 -67 -49 -93 -58 -119
-42 -8 6 13 27 69 66 l81 58 -49 35 c-26 19 -81 57 -120 85 -73 51 -82 61 -63
73 8 5 7 11 -1 21 -20 24 -3 26 40 4 23 -11 41 -18 41 -15 0 2 -18 14 -41 25
-28 15 -39 26 -35 37 19 48 92 213 94 213 2 0 41 -26 88 -57z m309 -54 l49
-111 -25 -20 c-21 -17 -21 -18 -2 -9 28 14 33 14 33 -1 -1 -7 -47 -41 -103
-76 -56 -34 -117 -72 -134 -83 l-33 -21 0 26 c0 20 9 30 40 46 22 11 40 23 40
25 0 3 -18 -4 -40 -15 l-40 -20 0 129 0 129 78 56 c42 30 80 55 83 55 4 1 28
-49 54 -110z m-680 18 c-4 -8 -13 -13 -20 -11 -20 8 -28 36 -13 45 17 11 40
-13 33 -34z m-185 -62 c0 -15 -27 -28 -41 -19 -15 9 -10 32 9 37 22 5 32 -1
32 -18z m158 -23 c13 -9 7 -42 -8 -42 -4 0 -15 9 -24 19 -13 15 -14 20 -4 24
19 8 22 8 36 -1z m-172 -114 c4 -6 -1 -17 -12 -25 -15 -11 -19 -11 -27 3 -14
25 24 46 39 22z m172 0 c18 -18 14 -38 -7 -38 -21 0 -31 17 -23 38 5 15 15 15
30 0z m38 -116 c17 -11 13 -42 -6 -42 -22 0 -40 19 -33 36 6 15 22 18 39 6z
m-183 -28 c10 -10 -12 -44 -27 -44 -8 0 -16 6 -19 14 -9 23 28 48 46 30z m241
-80 c22 -9 21 -44 -2 -44 -24 0 -42 19 -35 36 6 15 13 17 37 8z m-185 -63 c10
-7 11 -13 2 -30 -13 -24 -22 -26 -38 -10 -9 9 -9 16 0 30 13 21 16 22 36 10z
m275 -120 c12 -11 44 -31 72 -45 164 -82 348 -71 500 30 l57 38 48 -55 c27
-30 49 -59 49 -66 0 -18 -71 -70 -142 -103 -166 -78 -411 -78 -572 -1 -66 31
-146 86 -146 100 0 14 91 121 103 121 6 0 20 -9 31 -19z m-234 -15 c36 -8 78
-19 94 -25 l29 -12 -31 -32 c-18 -18 -32 -38 -32 -43 0 -6 14 -23 30 -37 17
-15 30 -34 30 -42 0 -20 -4 -19 -49 11 -26 17 -66 30 -115 37 l-75 12 35 23
c18 12 34 26 34 30 0 5 -16 23 -35 42 -19 19 -35 38 -35 42 0 12 47 9 120 -6z
m1150 -31 c-26 -27 -40 -48 -35 -53 6 -5 23 -18 39 -30 l29 -22 -30 0 c-45 0
-142 -28 -173 -50 -16 -11 -31 -20 -34 -20 -16 0 -3 29 24 55 37 36 37 44 0
80 l-30 29 26 14 c33 17 137 40 189 41 l39 1 -44 -45z"/>
<path d="M985 1278 c11 -6 32 -20 48 -30 15 -11 27 -17 27 -14 0 8 -73 56 -85
56 -5 0 -1 -6 10 -12z"/>
<path d="M952 1245 c-17 -37 -14 -45 4 -12 9 16 14 31 11 33 -2 2 -9 -7 -15
-21z"/>
<path d="M1009 1222 c14 -11 38 -27 55 -37 l31 -17 -24 20 c-14 11 -38 27 -55
37 l-31 17 24 -20z"/>
<path d="M1074 1221 c7 -11 46 -35 46 -28 0 3 -12 12 -26 22 -15 9 -23 12 -20
6z"/>
<path d="M992 1188 c30 -26 88 -62 88 -55 0 2 -26 21 -57 41 -32 20 -46 27
-31 14z"/>
<path d="M912 1155 c-17 -37 -14 -45 4 -12 9 16 14 31 11 33 -2 2 -9 -7 -15
-21z"/>
<path d="M960 1166 c0 -2 8 -10 18 -17 15 -13 16 -12 3 4 -13 16 -21 21 -21
13z"/>
<path d="M941 1127 c2 -1 13 -9 24 -17 19 -14 19 -14 6 3 -7 9 -18 17 -24 17
-6 0 -8 -1 -6 -3z"/>
<path d="M1112 1062 l-2 -73 -30 16 c-16 9 -30 13 -30 11 0 -8 61 -38 66 -33
3 3 3 38 1 78 l-3 74 -2 -73z"/>
<path d="M997 1089 c12 -15 73 -53 73 -46 0 2 -19 17 -42 32 -24 16 -38 22
-31 14z"/>
<path d="M940 1075 c0 -2 18 -14 40 -25 22 -11 40 -18 40 -15 0 2 -18 14 -40
25 -22 11 -40 18 -40 15z"/>
<path d="M890 1036 c0 -3 9 -10 20 -16 11 -6 20 -8 20 -6 0 3 -9 10 -20 16
-11 6 -20 8 -20 6z"/>
<path d="M980 1025 c0 -2 18 -14 40 -25 22 -11 40 -18 40 -15 0 2 -18 14 -40
25 -22 11 -40 18 -40 15z"/>
<path d="M955 995 c11 -9 29 -21 40 -26 l20 -10 -20 16 c-11 9 -29 21 -40 26
l-20 10 20 -16z"/>
<path d="M1246 1255 c-27 -18 -54 -39 -60 -46 -6 -6 18 7 53 31 50 33 65 39
72 29 5 -8 9 -18 9 -23 0 -5 3 -7 6 -4 7 7 -14 48 -24 47 -4 0 -29 -15 -56
-34z"/>
<path d="M1341 1205 c0 -5 6 -21 14 -35 8 -14 14 -20 14 -15 0 6 -6 21 -14 35
-8 14 -14 21 -14 15z"/>
<path d="M1162 1093 c-1 -62 1 -113 6 -113 4 0 6 35 4 77 -5 137 -9 151 -10
36z"/>
<path d="M1206 1185 c-11 -8 -15 -15 -9 -15 6 0 16 7 23 15 16 19 11 19 -14 0z"/>
<path d="M1245 1164 c-27 -18 -46 -34 -42 -34 10 0 97 59 97 65 0 7 -1 7 -55
-31z"/>
<path d="M1265 1130 c-33 -22 -57 -40 -52 -40 8 0 117 71 117 76 0 7 -4 4 -65
-36z"/>
<path d="M1297 1105 c-20 -14 -37 -28 -37 -31 0 -2 18 8 40 22 35 23 47 34 37
34 -1 0 -19 -11 -40 -25z"/>
<path d="M1380 1112 c0 -6 -18 -21 -40 -32 -22 -11 -40 -23 -40 -25 0 -8 78
34 85 46 4 5 4 13 1 16 -3 4 -6 1 -6 -5z"/>
<path d="M1226 1055 c-11 -8 -15 -15 -9 -15 6 0 16 7 23 15 16 19 11 19 -14 0z"/>
<path d="M1308 1034 c-27 -13 -48 -27 -48 -29 0 -3 23 6 50 20 28 14 50 28 50
30 0 7 1 7 -52 -21z"/>
<path d="M1228 1019 c-21 -11 -38 -22 -38 -24 0 -3 18 4 40 15 22 11 40 23 40
25 0 7 0 7 -42 -16z"/>
<path d="M787 555 c-22 -31 -12 -33 14 -2 23 27 25 10 2 -23 -9 -14 -10 -19
-3 -12 20 18 28 15 33 -10 4 -20 4 -20 6 4 0 14 7 28 14 31 6 2 4 3 -6 1 -12
-2 -17 2 -13 11 2 7 -2 16 -10 19 -20 8 -16 9 -37 -19z"/>
<path d="M1450 563 c0 -6 9 -21 19 -34 19 -23 21 -23 37 -7 16 16 16 17 -3 12
-14 -4 -26 2 -37 17 -9 13 -16 18 -16 12z"/>
<path d="M864 508 c-10 -21 -11 -28 -3 -20 18 17 29 15 29 -5 1 -16 2 -16 15
1 20 27 19 35 -5 29 -16 -4 -19 -2 -14 11 11 29 -5 17 -22 -16z"/>
<path d="M1411 528 c1 -19 17 -55 18 -40 1 6 11 12 24 12 l22 1 -24 19 c-27
23 -41 25 -40 8z m24 -8 c3 -5 1 -10 -4 -10 -6 0 -11 5 -11 10 0 6 2 10 4 10
3 0 8 -4 11 -10z"/>
<path d="M1377 524 c-11 -11 -8 -36 2 -29 6 3 14 -3 20 -12 15 -26 13 -2 -2
25 -7 12 -16 19 -20 16z"/>
<path d="M921 483 c-10 -21 -9 -28 1 -34 21 -14 32 -10 19 5 -9 11 -10 20 -1
35 6 12 7 21 2 21 -5 0 -14 -12 -21 -27z"/>
<path d="M1330 502 c0 -4 7 -17 15 -29 17 -24 45 -21 45 6 -1 14 -2 14 -14 -2
-12 -16 -14 -16 -20 -2 -4 11 -2 14 7 9 8 -5 7 -2 -2 9 -14 18 -31 23 -31 9z"/>
<path d="M995 459 c6 -45 15 -49 15 -6 0 21 -4 37 -10 37 -5 0 -7 -14 -5 -31z"/>
<path d="M1290 459 c0 -17 -4 -28 -10 -24 -5 3 -10 15 -10 26 0 14 -7 19 -25
19 -23 0 -25 -3 -19 -27 4 -16 11 -32 16 -38 6 -6 7 -4 3 8 -8 20 -2 21 26 5
17 -11 22 -10 30 5 7 13 17 16 32 11 21 -6 21 -6 -2 20 -32 34 -41 33 -41 -5z
m25 11 c3 -5 1 -10 -4 -10 -6 0 -11 5 -11 10 0 6 2 10 4 10 3 0 8 -4 11 -10z
m-55 -10 c0 -5 -4 -10 -10 -10 -5 0 -10 5 -10 10 0 6 5 10 10 10 6 0 10 -4 10
-10z"/>
<path d="M1034 468 c-4 -6 1 -17 11 -24 10 -8 16 -17 12 -20 -4 -4 -15 -1 -24
7 -16 13 -17 12 -4 -3 17 -22 30 -23 38 -3 3 9 -3 22 -13 31 -18 14 -18 15 5
8 16 -4 21 -3 17 5 -9 14 -33 14 -42 -1z"/>
<path d="M970 455 c-7 -9 -11 -18 -8 -20 3 -3 11 1 18 10 7 9 11 18 8 20 -3 3
-11 -1 -18 -10z"/>
<path d="M1110 434 c0 -31 3 -35 23 -32 17 2 23 11 25 36 3 29 1 32 -22 32
-23 0 -26 -4 -26 -36z m40 16 c0 -5 -4 -10 -9 -10 -6 0 -13 5 -16 10 -3 6 1
10 9 10 9 0 16 -4 16 -10z m0 -30 c0 -5 -4 -10 -9 -10 -6 0 -13 5 -16 10 -3 6
1 10 9 10 9 0 16 -4 16 -10z"/>
<path d="M1170 441 c0 -35 8 -41 35 -30 20 8 20 8 0 8 -26 1 -31 38 -7 44 12
3 10 5 -5 6 -19 1 -23 -4 -23 -28z"/>
</g>
</svg>
